<?xml version="1.0" encoding="UTF-8"?>
<svg width="1200pt" height="1200pt" version="1.1" viewBox="0 0 1200 1200" xmlns="http://www.w3.org/2000/svg">
 <path d="m786.48 405.93-94.105-139.74c-2.1758-3.2305-5.8203-5.1719-9.7188-5.1719-3.8984 0-7.543 1.9414-9.7188 5.1719l-160.97 239.02c-48.738-41.652-111.98-66.812-181.05-66.812-6.4648 0-11.719 5.25-11.719 11.719 0 6.4648 5.2539 11.719 11.719 11.719 91.43 0 171.7 48.133 216.85 120.42l-49.891 39.547c-50.508-50.613-120.32-81.941-197.39-81.941-6.4688 0-11.719 5.25-11.719 11.719s5.25 11.719 11.719 11.719c69.637 0 132.8 27.926 178.9 73.168l-60.465 47.926c-43.09-27.273-94.148-43.066-148.88-43.066-6.4648 0-11.719 5.25-11.719 11.719 0 6.4648 5.2539 11.719 11.719 11.719 47.172 0 91.371 12.809 129.31 35.141l-62.926 49.875c-27.285-8.9258-56.422-13.754-86.676-13.754-6.4688 0-11.719 5.25-11.719 11.719s5.25 11.719 11.719 11.719c22.164 0 43.676 2.8242 64.188 8.1445l-213.52 169.25c-4.3477 3.4453-5.6836 9.4648-3.2031 14.426l108.13 216.26c0.47266 0.99609 1.0977 1.9414 1.8672 2.7969l0.050781 0.050781c0.25 0.27734 0.51172 0.53906 0.78906 0.78906l0.058594 0.054687 0.046875 0.039063c1.3945 1.2383 3.0117 2.082 4.707 2.5391 0.98438 0.26562 2.0117 0.40625 3.0625 0.40625h622.31c4.8398 0 9.1797-2.9727 10.926-7.4844l254.08-656.13c0.61719-1.5859 0.86719-3.2578 0.77344-4.9062-0.10937-1.9492-0.70703-3.8945-1.832-5.6445l-0.066406-0.10156-0.035156-0.058594-0.046875-0.070313-179.67-266.8c-2.1758-3.2344-5.8203-5.1719-9.7188-5.1719-3.8984 0-7.543 1.9375-9.7227 5.1719zm76.973 112.16-619.65 632.69h317.27l384.83-632.69zm109.89 0h101.86l-245 632.69h-241.7zm-142.7 0-611.59 624.47-96.621-193.24 544.01-431.23zm-301.31 3.2891c13.855 14.031 26.242 29.531 36.895 46.234l88.852-70.43c2.0703-1.6406 4.6328-2.5312 7.2773-2.5312h64.371l45.617-67.742-89.695-133.2zm267.77-89.266c-0.48047 0.99609-1.1094 1.9336-1.8711 2.7773l-40.246 59.762h315.3l-157.65-234.1zm-358.77-29.344v-32.781c0-6.4688-5.2539-11.719-11.719-11.719-6.4688 0-11.719 5.25-11.719 11.719v32.781c0 6.4688 5.25 11.719 11.719 11.719 6.4648 0 11.719-5.25 11.719-11.719zm85.957-68.387 23.18 23.18c4.5703 4.5742 12 4.5742 16.57 0 4.5742-4.5742 4.5742-12 0-16.574l-23.18-23.18c-4.5703-4.5703-12-4.5703-16.57 0-4.5742 4.5781-4.5742 12 0 16.574zm-218.53 23.18 23.176-23.18c4.5742-4.5742 4.5742-11.996 0-16.574-4.5703-4.5703-11.996-4.5703-16.57 0l-23.18 23.18c-4.5742 4.5742-4.5742 12 0 16.574s12 4.5742 16.574 0zm120.86-255.11c-64.949 0-117.68 52.73-117.68 117.68 0 64.953 52.734 117.68 117.68 117.68 64.949 0 117.68-52.73 117.68-117.68 0-64.949-52.73-117.68-117.68-117.68zm0 23.438c52.016 0 94.242 42.23 94.242 94.242 0 52.016-42.227 94.246-94.242 94.246-52.016 0-94.246-42.23-94.246-94.246 0-52.012 42.23-94.242 94.246-94.242zm149.85 105.96h32.781c6.4688 0 11.719-5.25 11.719-11.719s-5.25-11.719-11.719-11.719h-32.781c-6.4648 0-11.719 5.25-11.719 11.719s5.2539 11.719 11.719 11.719zm-332.49 0h32.781c6.4688 0 11.719-5.25 11.719-11.719s-5.25-11.719-11.719-11.719h-32.781c-6.4688 0-11.719 5.25-11.719 11.719s5.25 11.719 11.719 11.719zm296.88-109.39 23.18-23.18c4.5742-4.5703 4.5742-12 0-16.57-4.5703-4.5742-12-4.5742-16.57 0l-23.18 23.18c-4.5742 4.5703-4.5742 12 0 16.57 4.5703 4.5742 12 4.5742 16.57 0zm-251.68-23.18 23.18 23.18c4.5742 4.5742 12 4.5742 16.57 0 4.5742-4.5703 4.5742-12 0-16.57l-23.176-23.18c-4.5742-4.5742-12-4.5742-16.574 0-4.5742 4.5703-4.5742 12 0 16.57zm149.15-28.996v-32.781c0-6.4688-5.2539-11.719-11.719-11.719-6.4688 0-11.719 5.25-11.719 11.719v32.781c0 6.4688 5.25 11.719 11.719 11.719 6.4648 0 11.719-5.25 11.719-11.719z" fill-rule="evenodd"/>
</svg>
